<?xml version="1.0" encoding="utf-8"?>
<!-- Generator: Adobe Illustrator 15.0.0, SVG Export Plug-In . SVG Version: 6.00 Build 0)  -->
<!DOCTYPE svg PUBLIC "-//W3C//DTD SVG 1.1//EN" "http://www.w3.org/Graphics/SVG/1.1/DTD/svg11.dtd">
<svg version="1.1" id="Layer_1" xmlns="http://www.w3.org/2000/svg" xmlns:xlink="http://www.w3.org/1999/xlink" x="0px" y="0px"
	 width="16px" height="16px" viewBox="0 0 16 16" enable-background="new 0 0 16 16" xml:space="preserve">
<path fill="#FFFFFF" d="M7.938,2.016C7.958,2.005,7.979,2,8.002,2c0.022,0,0.044,0.005,0.063,0.016
	C8.088,2.03,8.106,2.049,8.119,2.073l6.857,11.667c0.035,0.06,0.034,0.124,0.002,0.183c-0.014,0.024-0.031,0.045-0.055,0.06
	c-0.02,0.013-0.043,0.019-0.066,0.018H1.146C1.123,14.001,1.1,13.995,1.08,13.982c-0.023-0.015-0.042-0.035-0.054-0.06
	c-0.034-0.057-0.033-0.127,0.002-0.183L7.884,2.073C7.896,2.049,7.915,2.03,7.938,2.016z M8.982,1.566
	C8.672,1.025,7.98,0.838,7.439,1.148c-0.174,0.1-0.318,0.244-0.417,0.417L0.165,13.232C-0.292,14.011,0.256,15,1.145,15h13.712
	c0.89,0,1.438-0.99,0.98-1.768L8.982,1.566z"/>
<path fill="#FFFFFF" d="M7.002,12c0-0.553,0.448-1,1-1c0.553,0,1,0.447,1,1s-0.447,1-1,1C7.45,13,7.002,12.553,7.002,12z M7.1,5.995
	C7.047,5.498,7.408,5.053,7.905,5S8.848,5.308,8.9,5.805c0.006,0.063,0.006,0.126,0,0.19L8.55,9.502
	c-0.026,0.304-0.293,0.529-0.597,0.503C7.685,9.982,7.473,9.77,7.45,9.502L7.1,5.995z"/>
</svg>
