<?xml version="1.0" encoding="utf-8"?>
<!-- Generator: Adobe Illustrator 15.0.0, SVG Export Plug-In . SVG Version: 6.00 Build 0)  -->
<!DOCTYPE svg PUBLIC "-//W3C//DTD SVG 1.1//EN" "http://www.w3.org/Graphics/SVG/1.1/DTD/svg11.dtd">
<svg version="1.1" id="Layer_1" xmlns="http://www.w3.org/2000/svg" xmlns:xlink="http://www.w3.org/1999/xlink" x="0px" y="0px"
	 width="600px" height="600px" viewBox="0 0 600 600" enable-background="new 0 0 600 600" xml:space="preserve">
<path opacity="0.05" enable-background="new    " d="M97.251,739.812l121.059-52.561c-40.326-46.121-71.879-103.562-90.813-170.389
	C59.393,276.488,179.851,4.574,396.02-89.282l728.076-316.105l76.717-173.188l-840.08,364.738
	C82.797-93.165-72.079,256.441,15.486,565.499C34.038,630.981,62.041,689.438,97.251,739.812z"/>
<path opacity="0.05" enable-background="new    " d="M301.434,668.266l142.824-62.009
	c-59.469-25.446-107.771-79.444-128.857-153.868c-38.979-137.582,29.719-292.654,153.442-346.371l560.056-243.158l76.721-173.187
	L433.552-18.537C248.261,61.911,145.011,294.98,203.387,501.019C222.659,569.03,257.176,625.718,301.434,668.266z"/>
</svg>
